<?xml version="1.0" encoding="UTF-8" standalone="no"?>
<!-- Created with Inkscape (http://www.inkscape.org/) -->

<svg
   width="182mm"
   height="138mm"
   viewBox="0 0 182 138"
   version="1.1"
   id="svg5"
   inkscape:version="1.2 (dc2aedaf03, 2022-05-15)"
   sodipodi:docname="slimak.svg"
   xmlns:inkscape="http://www.inkscape.org/namespaces/inkscape"
   xmlns:sodipodi="http://sodipodi.sourceforge.net/DTD/sodipodi-0.dtd"
   xmlns="http://www.w3.org/2000/svg"
   xmlns:svg="http://www.w3.org/2000/svg">
  <sodipodi:namedview
     id="namedview7"
     pagecolor="#505050"
     bordercolor="#eeeeee"
     borderopacity="1"
     inkscape:showpageshadow="0"
     inkscape:pageopacity="0"
     inkscape:pagecheckerboard="0"
     inkscape:deskcolor="#505050"
     inkscape:document-units="mm"
     showgrid="false"
     inkscape:zoom="0.52221045"
     inkscape:cx="612.77977"
     inkscape:cy="122.55595"
     inkscape:window-width="1920"
     inkscape:window-height="1009"
     inkscape:window-x="-8"
     inkscape:window-y="-8"
     inkscape:window-maximized="1"
     inkscape:current-layer="layer1" />
  <defs
     id="defs2" />
  <g
     inkscape:label="Warstwa 1"
     inkscape:groupmode="layer"
     id="layer1">
    <path
       sodipodi:type="spiral"
       style="fill:none;fill-rule:evenodd;stroke:#000000;stroke-width:0.264583;image-rendering:auto"
       id="path62"
       sodipodi:cx="55.530758"
       sodipodi:cy="92.073578"
       sodipodi:expansion="1"
       sodipodi:revolution="3"
       sodipodi:radius="50.820332"
       sodipodi:argument="-16.849798"
       sodipodi:t0="0"
       d="m 55.530758,92.073578 c -1.059802,2.317193 -3.646398,-0.285371 -3.851327,-1.76146 -0.555343,-4.000112 3.95592,-6.356121 7.374248,-5.941193 6.114585,0.742208 9.278803,7.40351 8.031059,12.987034 C 65.253622,105.552 56.195482,109.62223 48.484917,107.47888 38.207946,104.62214 33.209855,93.091469 36.274125,83.266276 40.130195,70.902274 54.165342,64.967618 66.09952,68.965618 80.553408,73.807732 87.429137,90.36376 82.490044,104.4038 76.669495,120.9495 57.583041,128.76899 41.439076,122.88419 22.800229,116.08996 14.035234,94.467031 20.868818,76.220435 28.633571,55.487493 52.797045,45.775787 73.145361,53.560312 c 22.827735,8.73306 33.487019,35.43996 24.74999,57.889328 -9.699762,24.92306 -38.952198,36.53057 -63.502117,26.83986"
       transform="matrix(0.99155495,-0.17826512,0.25138845,0.96329553,22.431334,-17.470162)" />
    <g
       id="g469"
       transform="translate(-17.226452,-16.719792)">
      <path
         style="fill:#e9c6af;stroke-width:0.264583"
         d="m 108.71789,126.26213 c -22.609385,-1.1721 -30.788493,-12.56292 -30.788493,-12.56292 0,0 -19.831516,-19.376706 -24.302025,-28.253745 -4.470509,-8.877041 -15.083789,-19.192308 -3.665751,-21.465821 11.41804,-2.273513 12.308315,0.107993 12.308315,0.107993 0,0 -1.137881,-2.575295 16.459278,16.834591"
         id="path276" />
      <path
         style="fill:#e9c6af;stroke-width:0.264583"
         d="m 44.602895,68.64418 c 10.932963,78.64728 60.152155,61.35223 60.152155,61.35223 29.00328,0.46863 63.45619,0.2153 63.45619,0.2153 0,0 -10.13321,-8.86656 -25.07969,-6.33326 -14.94648,2.53331 -34.70624,2.27998 -34.70624,2.27998 l -3.67026,3.83798"
         id="path386" />
      <path
         style="fill:#e9c6af;stroke-width:0.957468"
         d="m 332.55296,495.53201 c -23.34899,-3.3533 -45.98009,-12.41806 -65.36597,-26.18198 -10.39212,-7.37837 -28.36392,-25.36672 -37.01899,-37.05306 -27.37271,-36.95949 -46.89695,-88.37213 -57.92387,-152.52936 -3.73023,-21.70337 -3.12378,-26.9818 3.68968,-32.11411 6.39102,-4.81409 24.33709,-8.53037 41.89024,-8.67464 8.99501,-0.0739 11.71207,0.24449 14.84076,1.73924 4.42726,2.11514 26.38587,23.83712 48.96502,48.43735 14.01923,15.2741 16.94287,19.12624 33.06413,43.56481 9.72677,14.74501 35.02533,53.02665 56.219,85.07029 21.19369,32.04365 38.34371,58.45145 38.11115,58.684 -0.43065,0.43066 -22.33384,-1.95146 -28.43043,-3.09199 -3.25542,-0.60902 -3.09402,-0.36594 5.65031,8.50998 l 9.00143,9.13691 -4.11447,1.10792 c -15.91536,4.28556 -41.89246,5.79095 -58.57799,3.39464 z"
         id="path457"
         transform="scale(0.26458333)" />
      <path
         style="fill:#e9c6af;stroke-width:0.264583"
         d="m 97.532115,131.35169 c 24.066365,-1.01332 30.146295,-1.39331 30.146295,-1.39331 l -31.286279,-7.9799 z"
         id="path463" />
    </g>
    <path
       style="fill:#552200;stroke-width:0.25333"
       d="M 92.718841,108.63404 90.692202,108.0983 83.345625,96.972015 C 79.305009,90.852559 75.95382,85.717502 75.898536,85.560782 c -0.05528,-0.156718 0.229713,-0.02891 0.633325,0.284019 5.061074,3.923977 11.144332,6.701203 17.073636,7.794723 3.251081,0.599588 9.438853,0.601599 12.481553,0.004 14.20208,-2.789076 24.00057,-13.26983 24.66689,-26.384416 0.40924,-8.054864 -2.71249,-15.850081 -8.77547,-21.913061 -3.81799,-3.817996 -8.29814,-6.428243 -13.35623,-7.781677 -2.16506,-0.579321 -2.98722,-0.664583 -6.53018,-0.677217 -4.726696,-0.01685 -7.14661,0.460024 -10.638813,2.096524 -7.861681,3.684112 -12.287568,10.238193 -12.287568,18.196071 0,3.232139 0.507513,5.620242 1.77451,8.349951 2.749773,5.924306 7.459036,10.001559 13.439955,11.63624 2.215968,0.605657 6.622416,0.604647 8.851896,-0.0021 4.97259,-1.353124 8.86369,-4.99486 10.04167,-9.398143 1.17578,-4.39506 -0.57629,-9.597437 -4.19059,-12.443013 -4.11932,-3.243185 -9.633903,-2.995871 -12.341115,0.553466 -0.64911,0.851027 -0.729871,1.160061 -0.729871,2.792865 0,1.608717 0.07839,1.919846 0.633325,2.513759 1.350965,1.445845 3.201498,1.84137 3.906431,0.834945 0.49046,-0.70024 0.29836,-0.927578 -0.31487,-0.372615 -0.716561,0.648481 -1.635287,0.505849 -2.706551,-0.420185 -0.887598,-0.767265 -0.982281,-0.973097 -1.082037,-2.352185 -0.101799,-1.407345 -0.0501,-1.588987 0.751393,-2.639812 0.546687,-0.716753 1.404768,-1.40671 2.351902,-1.89109 4.802073,-2.455879 11.216363,1.111575 13.090073,7.280338 2.68881,8.852329 -6.35764,17.172212 -16.647367,15.310334 -4.128418,-0.747019 -7.105465,-2.360919 -10.367145,-5.620184 -2.53683,-2.534952 -3.952718,-4.779232 -5.114332,-8.106566 -0.654463,-1.874649 -0.707096,-2.311622 -0.701797,-5.826593 0.0052,-3.444534 0.06945,-3.989509 0.686962,-5.826593 0.925788,-2.75418 2.254541,-4.938337 4.367485,-7.179112 2.836799,-3.008418 6.662018,-5.261062 10.893197,-6.41492 2.9107,-0.793758 9.478437,-0.802437 12.336697,-0.0163 7.68838,2.114619 13.87057,6.704391 17.91752,13.3023 5.24172,8.545817 5.67699,18.481789 1.17996,26.935337 -1.44332,2.713157 -2.87112,4.55721 -5.39136,6.963119 -4.19928,4.008776 -9.13434,6.539923 -15.34376,7.869679 -3.65797,0.783358 -9.6202,0.786366 -13.258718,0.0067 -6.569414,-1.407692 -11.959611,-4.019013 -17.123381,-8.295516 -1.626351,-1.346901 -2.300438,-2.236718 -6.417677,-8.471558 -5.379935,-8.146963 -5.052687,-7.575058 -5.845326,-10.215401 -1.900219,-6.329776 -1.8366,-14.0832 0.165915,-20.220175 1.729999,-5.301822 4.338203,-9.461045 8.565171,-13.65862 5.597914,-5.558988 11.829343,-8.864788 20.13336,-10.680835 2.241484,-0.490202 3.313083,-0.562457 8.274866,-0.557961 4.94643,0.0045 6.04753,0.08039 8.3294,0.574238 5.17813,1.120661 9.7347,2.825856 13.99113,5.235861 12.17814,6.895322 20.80438,18.816015 23.57958,32.584853 0.82641,4.100112 0.82403,11.770124 -0.005,15.613996 -1.58307,7.341542 -4.48865,13.305361 -9.24145,18.968423 -4.91028,5.8507 -12.42324,10.873615 -20.35393,13.607975 -3.16151,1.09003 -6.33196,1.40014 -15.9199,1.55717 -6.098258,0.0999 -6.73684,0.0682 -8.613228,-0.42787 z"
       id="path540" />
    <path
       style="fill:#e9c6af;fill-opacity:1;stroke-width:0.264583"
       id="path849"
       d="m 43.976977,50.245168 c -0.443619,-0.541671 -0.88844,-1.082881 -1.224577,-1.699297 -0.351131,-0.933273 -0.551558,-1.920552 -0.735772,-2.898711 -0.19078,-1.103083 -0.163753,-2.226432 -0.101727,-3.339449 0.04389,-0.687941 0.05301,-1.377908 0.235271,-2.046214 0.276338,-0.510812 0.779938,-0.852109 1.180541,-1.265407 0.402207,-0.439428 0.701239,-0.947835 1.016992,-1.447387 0.168217,-0.38558 0.482045,-0.57037 0.838529,-0.754808 0.356375,-0.234554 0.720254,-0.471049 1.100314,-0.670865 0.424244,-0.251116 0.774208,-0.57717 1.079971,-0.961982 0.225663,-0.400225 0.571257,-0.710261 0.880494,-1.043988 0,0 -3.376729,-2.052251 -3.376729,-2.052251 v 0 c -0.315886,0.338997 -0.662641,0.660175 -0.899168,1.062905 -0.283358,0.338233 -0.614553,0.616815 -1.001165,0.832308 -0.374525,0.215765 -0.744326,0.440454 -1.109969,0.670787 -0.389253,0.239668 -0.744046,0.492988 -0.932551,0.929236 -0.29188,0.481091 -0.579035,0.96148 -0.965374,1.377026 -0.450432,0.456901 -0.999234,0.839989 -1.280946,1.432878 -0.209394,0.69874 -0.223255,1.418555 -0.244591,2.143715 -0.04944,1.139642 -0.09953,2.290386 0.06757,3.422427 0.174411,0.999461 0.403003,1.989019 0.65667,2.971176 0.264662,0.67523 0.751384,1.208619 1.171511,1.789358 0,0 3.644702,1.548543 3.644702,1.548543 z" />
    <path
       style="fill:#e9c6af;fill-opacity:1;stroke-width:0.264583"
       id="path851"
       d="m 35.095912,50.967616 c -0.09042,-0.167979 -0.194744,-0.329187 -0.27127,-0.503934 -0.246557,-0.56302 -0.417152,-1.190257 -0.5691,-1.780466 -0.311666,-1.210611 -0.523928,-2.42948 -0.716333,-3.66341 -0.22066,-2.030661 -0.330546,-4.070839 -0.384789,-6.112031 -0.05856,-1.367996 -0.01828,-2.724954 0.163145,-4.080785 0.0652,-0.529638 0.172286,-1.054878 0.218763,-1.586958 0.03314,-0.379468 0.02442,-0.73253 0.110437,-1.104217 0,0 -3.469259,-1.8771 -3.469259,-1.8771 v 0 c -0.117176,0.435478 -0.08587,0.720778 -0.110792,1.163622 -0.02998,0.532662 -0.138991,1.059744 -0.194757,1.589479 -0.03693,0.263128 -0.14148,0.982583 -0.164264,1.247235 -0.08341,0.968928 0.02328,1.942315 0.01595,2.91234 0.05694,2.065976 0.190455,4.126471 0.418533,6.181299 0.297448,2.028783 0.621195,4.092134 1.338033,6.020258 0,0 3.615684,1.594668 3.615684,1.594668 z" />
    <ellipse
       style="fill:#ffffff;fill-opacity:1;stroke-width:0.264583"
       id="path905"
       cx="32.679592"
       cy="28.499641"
       rx="4.0532827"
       ry="3.9266179" />
    <ellipse
       style="fill:#ffffff;fill-opacity:1;stroke-width:0.264583"
       id="ellipse959"
       cx="46.106091"
       cy="32.046265"
       rx="4.0532827"
       ry="3.9266179" />
    <ellipse
       style="fill:#000000;fill-opacity:1;stroke-width:0.264583"
       id="path1127"
       cx="33.243843"
       cy="28.219818"
       rx="0.9404403"
       ry="0.91804886" />
    <ellipse
       style="fill:#000000;fill-opacity:1;stroke-width:0.264583"
       id="path1129"
       cx="46.656311"
       cy="31.556139"
       rx="1.0076146"
       ry="0.98522317" />
    <path
       style="fill:#000000;fill-opacity:1;stroke-width:0.264583"
       d="m 33.199061,53.365401 c 9.762665,3.806544 11.777893,-0.492612 11.777893,-0.492612"
       id="path1131" />
    <path
       style="fill:#000000;fill-opacity:1;stroke-width:0.264583"
       id="path1255"
       d="m 29.500022,24.149236 c 0.677392,-0.09978 1.284378,-0.420912 1.899788,-0.700503 0.458624,-0.186618 0.923237,-0.395285 1.414301,-0.483819 0.308097,-0.05555 0.566198,-0.04661 0.882333,-0.05363 0.993738,-0.02138 1.981562,0.0788 2.958946,0.248812 0.47842,0.113339 0.985404,0.207581 1.393219,0.496115 -3.252986,-1.866861 -4.121105,-2.640415 -3.044616,-1.702488 0,0 3.63428,1.498446 3.63428,1.498446 v 0 c -1.075724,-1.150584 -0.08333,-0.117312 -3.655899,-2.259858 -0.462716,-0.174083 -0.938924,-0.298283 -1.43089,-0.358526 -0.980371,-0.121981 -1.966722,-0.165825 -2.954653,-0.159205 -0.185129,0.0077 -0.371012,0.0047 -0.555389,0.02307 -0.65714,0.06545 -1.268447,0.368861 -1.873382,0.609704 -0.613262,0.285887 -1.23312,0.53595 -1.916052,0.588901 0,0 3.248014,2.252988 3.248014,2.252988 z" />
    <path
       style="fill:#000000;fill-opacity:1;stroke-width:0.264583"
       id="path1259"
       d="m 50.590069,27.062533 c -0.677392,-0.09978 -1.284378,-0.420912 -1.899788,-0.700503 -0.458624,-0.186618 -0.923237,-0.395285 -1.414301,-0.483819 -0.308097,-0.05555 -0.566198,-0.04661 -0.882333,-0.05363 -0.993738,-0.02138 -1.981562,0.0788 -2.958946,0.248812 -0.47842,0.113339 -0.985404,0.207581 -1.393219,0.496115 3.252986,-1.866861 4.121105,-2.640415 3.044616,-1.702488 0,0 -3.63428,1.498446 -3.63428,1.498446 v 0 c 1.075724,-1.150584 0.08333,-0.117312 3.655899,-2.259858 0.462716,-0.174083 0.938924,-0.298283 1.43089,-0.358526 0.980371,-0.121981 1.966722,-0.165825 2.954653,-0.159205 0.185129,0.0077 0.371012,0.0047 0.555389,0.02307 0.65714,0.06545 1.268447,0.368861 1.873382,0.609704 0.613262,0.285887 1.23312,0.53595 1.916052,0.588901 0,0 -3.248014,2.252988 -3.248014,2.252988 z" />
    <path
       style="fill:#e9c6af;fill-opacity:1;stroke-width:0.264583"
       d="m 76.10105,114.94185 c 78.99699,3.94089 74.16044,-1.79131 74.16044,-1.79131 l -87.595302,-3.58263 z"
       id="path1392" />
  </g>
</svg>
