<?xml version="1.0" encoding="UTF-8" standalone="no"?>
<!-- Created with Inkscape (http://www.inkscape.org/) -->

<svg
   width="171mm"
   height="194mm"
   viewBox="0 0 171 194"
   version="1.1"
   id="svg5"
   inkscape:version="1.2 (dc2aedaf03, 2022-05-15)"
   sodipodi:docname="żaba.svg"
   xmlns:inkscape="http://www.inkscape.org/namespaces/inkscape"
   xmlns:sodipodi="http://sodipodi.sourceforge.net/DTD/sodipodi-0.dtd"
   xmlns="http://www.w3.org/2000/svg"
   xmlns:svg="http://www.w3.org/2000/svg">
  <sodipodi:namedview
     id="namedview7"
     pagecolor="#505050"
     bordercolor="#eeeeee"
     borderopacity="1"
     inkscape:showpageshadow="0"
     inkscape:pageopacity="0"
     inkscape:pagecheckerboard="0"
     inkscape:deskcolor="#505050"
     inkscape:document-units="mm"
     showgrid="false"
     inkscape:zoom="0.73851712"
     inkscape:cx="247.11682"
     inkscape:cy="546.36513"
     inkscape:window-width="1379"
     inkscape:window-height="1000"
     inkscape:window-x="7"
     inkscape:window-y="19"
     inkscape:window-maximized="0"
     inkscape:current-layer="layer1" />
  <defs
     id="defs2" />
  <g
     inkscape:label="Warstwa 1"
     inkscape:groupmode="layer"
     id="layer1">
    <g
       id="g14554"
       transform="translate(-12.897467,-3.2243667)">
      <path
         id="path11647"
         style="fill:#03a241;fill-opacity:1;stroke:#000000;stroke-width:2.265;stroke-opacity:1"
         d="m 76.847458,107.12051 a 20.600121,21.137516 0 0 0 -20.600293,21.13772 20.600121,21.137516 0 0 0 2.038119,9.16585 23.645355,7.5235224 0 0 0 -18.159615,7.31428 23.645355,7.5235224 0 0 0 23.645068,7.52358 23.645355,7.5235224 0 0 0 22.505086,-5.22552 20.600121,21.137516 0 0 0 11.171924,-18.77819 20.600121,21.137516 0 0 0 -20.600289,-21.13772 z" />
      <path
         id="path11647-5"
         style="fill:#03a241;fill-opacity:1;stroke:#000000;stroke-width:2.19164;stroke-opacity:1"
         d="m 115.34939,107.0838 a 19.256021,21.171867 0 0 1 19.25618,21.17207 19.256021,21.171867 0 0 1 -1.90513,9.18075 22.102562,7.535749 0 0 1 16.97475,7.32616 22.102562,7.535749 0 0 1 -22.1023,7.53581 22.102562,7.535749 0 0 1 -21.03669,-5.23401 19.256021,21.171867 0 0 1 -10.442993,-18.80871 19.256021,21.171867 0 0 1 19.256183,-21.17207 z" />
      <ellipse
         style="fill:#03af46;fill-opacity:1;stroke:#000000;stroke-width:2.265;stroke-opacity:1"
         id="path8152"
         cx="96.193596"
         cy="117.68939"
         rx="19.883595"
         ry="30.27322" />
      <path
         id="path2191"
         style="fill:#03a241;fill-opacity:1;stroke:#000000;stroke-width:1.33376;stroke-opacity:1"
         d="m 96.117517,29.722178 a 35.535454,33.29764 0 0 0 -35.494941,32.283781 45.429636,20.35596 0 0 0 -0.632994,0.374 6.0926043,0.08400772 0 0 0 -0.03239,0.0083 6.0926043,0.08400772 0 0 0 0.01067,0.0046 45.429636,20.35596 0 0 0 -8.487307,11.840568 45.429636,20.35596 0 0 0 30.15736,19.17003 35.535454,33.29764 0 0 0 14.479602,2.91409 35.535454,33.29764 0 0 0 13.626723,-2.56518 45.429636,20.35596 0 0 0 32.59559,-19.51894 45.429636,20.35596 0 0 0 -10.74947,-13.14775 35.535454,33.29764 0 0 0 -35.472843,-31.363472 z" />
      <ellipse
         style="fill:#ffffff;fill-opacity:1;stroke:#000000;stroke-width:1.55457;stroke-opacity:1"
         id="path3866"
         cx="80.001091"
         cy="41.622322"
         rx="13.078104"
         ry="17.621433" />
      <ellipse
         style="fill:#ffffff;fill-opacity:1;stroke:#000000;stroke-width:1.55457;stroke-opacity:1"
         id="path3866-7"
         cx="110.78087"
         cy="42.080025"
         rx="13.078104"
         ry="17.621433" />
      <ellipse
         style="fill:#000000;fill-opacity:1;stroke:#000000;stroke-width:1.55457;stroke-opacity:1"
         id="path5864"
         cx="80.265289"
         cy="46.657013"
         rx="3.0383475"
         ry="2.7461975" />
      <ellipse
         style="fill:#000000;fill-opacity:1;stroke:#000000;stroke-width:1.55457;stroke-opacity:1"
         id="path5864-3"
         cx="110.51666"
         cy="47.114716"
         rx="3.0383475"
         ry="2.7461975" />
      <path
         style="fill:none;fill-opacity:1;stroke:#000000;stroke-width:1.55457;stroke-opacity:1"
         d="M 72.471264,77.322877 C 102.59055,102.72521 118.4428,75.720937 118.4428,75.720937"
         id="path8096" />
      <ellipse
         style="fill:#ff0101;fill-opacity:1;stroke:#000000;stroke-width:1.55457;stroke-opacity:1"
         id="path6926-6"
         cx="124.78369"
         cy="74.347839"
         rx="7.5298181"
         ry="6.1789441" />
      <ellipse
         style="fill:#ff0101;fill-opacity:1;stroke:#000000;stroke-width:1.55457;stroke-opacity:1"
         id="path6926"
         cx="68.376106"
         cy="75.263237"
         rx="7.5298181"
         ry="6.1789441" />
      <ellipse
         style="fill:#d9b479;fill-opacity:1;stroke:#000000;stroke-width:3.19957;stroke-opacity:1"
         id="path11761"
         cx="95.656189"
         cy="134.16948"
         rx="12.43018"
         ry="14.042364" />
      <ellipse
         style="fill:#03a241;fill-opacity:1;stroke:#000000;stroke-width:2.265;stroke-opacity:1"
         id="path11732"
         cx="82.758743"
         cy="123.77986"
         rx="7.8817854"
         ry="27.048853" />
      <ellipse
         style="fill:#03a241;fill-opacity:1;stroke:#000000;stroke-width:2.265;stroke-opacity:1"
         id="path11732-6"
         cx="108.19542"
         cy="123.95898"
         rx="7.8817854"
         ry="27.048853" />
      <ellipse
         style="fill:#2d7d24;fill-opacity:1;stroke:#000000;stroke-width:2.265;stroke-opacity:1"
         id="path11815"
         cx="75.593491"
         cy="150.29131"
         rx="4.6574187"
         ry="4.4782872" />
      <ellipse
         style="fill:#2d7d24;fill-opacity:1;stroke:#000000;stroke-width:2.265;stroke-opacity:1"
         id="path11815-2"
         cx="81.325699"
         cy="155.84439"
         rx="4.6574187"
         ry="4.4782872" />
      <ellipse
         style="fill:#2d7d24;fill-opacity:1;stroke:#000000;stroke-width:2.265;stroke-opacity:1"
         id="path11815-7"
         cx="90.282272"
         cy="150.47044"
         rx="4.6574187"
         ry="4.4782872" />
      <ellipse
         style="fill:#2d7d24;fill-opacity:1;stroke:#000000;stroke-width:2.265;stroke-opacity:1"
         id="path11815-0"
         cx="107.12063"
         cy="154.41135"
         rx="4.6574187"
         ry="4.4782872" />
      <ellipse
         style="fill:#2d7d24;fill-opacity:1;stroke:#000000;stroke-width:2.265;stroke-opacity:1"
         id="path11815-4"
         cx="115.36068"
         cy="147.9626"
         rx="4.6574187"
         ry="4.4782872" />
      <ellipse
         style="fill:#2d7d24;fill-opacity:1;stroke:#000000;stroke-width:2.265;stroke-opacity:1"
         id="path11815-73"
         cx="100.67189"
         cy="147.9626"
         rx="4.6574187"
         ry="4.4782872" />
      <ellipse
         style="fill:#2d7d24;fill-opacity:1;stroke:#000000;stroke-width:1.89547;stroke-opacity:1"
         id="path14489"
         cx="89.298737"
         cy="71.152603"
         rx="0.63428313"
         ry="2.5508893" />
      <ellipse
         style="fill:#2d7d24;fill-opacity:1;stroke:#000000;stroke-width:1.89547;stroke-opacity:1"
         id="path14489-6"
         cx="104.52154"
         cy="71.436043"
         rx="0.63428313"
         ry="2.5508893" />
    </g>
  </g>
</svg>
